<?xml version="1.0" standalone="no"?>
<!DOCTYPE svg PUBLIC "-//W3C//DTD SVG 20010904//EN"
 "http://www.w3.org/TR/2001/REC-SVG-20010904/DTD/svg10.dtd">
<svg version="1.0" xmlns="http://www.w3.org/2000/svg"
 width="160.000000pt" height="55.000000pt" viewBox="0 0 160.000000 55.000000"
 preserveAspectRatio="xMidYMid meet">

<g transform="translate(0.000000,55.000000) scale(0.100000,-0.100000)"
fill="#000000" stroke="none">
<path d="M112 483 c-40 -52 -50 -73 -63 -131 -20 -96 17 -159 120 -205 32 -14
40 -21 30 -28 -11 -7 -12 -9 -1 -9 36 0 128 -35 149 -56 29 -29 33 -29 33 -6
0 31 -29 61 -101 103 -38 22 -86 54 -105 71 -76 67 -95 163 -50 251 13 26 22
47 20 47 -1 0 -16 -17 -32 -37z"/>
<path d="M357 475 c-12 -17 -28 -25 -47 -25 -16 0 -32 -4 -35 -10 -3 -5 -15
-10 -26 -10 -12 0 -19 -7 -19 -20 0 -11 -5 -20 -12 -20 -6 0 -8 -3 -5 -7 4 -4
-5 -20 -20 -36 -16 -17 -22 -27 -15 -23 10 6 12 0 8 -31 -4 -24 -3 -31 2 -19
8 17 11 15 28 -20 13 -27 41 -54 89 -87 38 -26 78 -62 88 -80 16 -28 17 -29
13 -7 -3 14 -6 30 -6 37 0 6 -21 31 -46 56 -36 36 -44 50 -39 67 6 18 12 20
38 14 42 -9 47 -12 57 -40 7 -17 17 -24 35 -24 35 0 42 24 20 79 -10 25 -20
60 -22 78 -3 17 -14 39 -24 49 -10 9 -19 31 -20 48 0 17 -3 25 -6 19 -9 -24
-23 -13 -17 12 8 31 4 31 -19 0z"/>
<path d="M34 424 c-8 -19 -19 -56 -23 -80 -13 -69 14 -164 47 -164 10 0 8 9
-7 34 -25 40 -28 127 -6 199 17 55 10 62 -11 11z"/>
<path d="M590 365 c0 -60 3 -75 15 -75 12 0 15 14 15 65 0 58 2 65 20 65 11 0
20 5 20 10 0 6 -16 10 -35 10 l-35 0 0 -75z"/>
<path d="M730 377 c0 -36 5 -68 12 -75 17 -17 74 -15 92 4 22 22 23 134 1 134
-11 0 -15 -13 -15 -53 0 -48 -12 -77 -31 -77 -22 0 -39 35 -39 81 0 27 -4 49
-10 49 -6 0 -10 -28 -10 -63z"/>
<path d="M930 367 l0 -77 40 0 c45 0 55 17 13 22 -26 3 -28 7 -33 60 -8 85
-20 82 -20 -5z"/>
<path d="M1080 363 c0 -53 4 -73 13 -73 7 0 13 12 12 28 0 23 5 28 30 30 36 4
55 19 55 41 0 32 -18 45 -64 46 l-46 2 0 -74z m75 32 c0 -14 -8 -21 -27 -23
-24 -3 -28 0 -28 23 0 23 4 26 28 23 19 -2 27 -9 27 -23z"/>
<path d="M1470 365 c0 -60 3 -75 15 -75 10 0 15 10 15 30 0 17 4 30 9 30 5 0
14 -13 21 -30 8 -18 20 -30 31 -30 18 0 19 1 3 25 -15 24 -15 27 0 44 19 21
21 52 4 69 -7 7 -31 12 -55 12 l-43 0 0 -75z m78 28 c3 -19 -1 -23 -22 -23
-21 0 -26 5 -26 26 0 21 4 25 23 22 14 -2 23 -11 25 -25z"/>
<path d="M1305 416 c-10 -8 -55 -108 -55 -123 0 -11 29 0 34 12 7 20 66 19 81
-1 27 -37 31 -6 8 57 -24 66 -39 77 -68 55z m35 -42 c13 -34 13 -34 -15 -34
-27 0 -28 3 -19 38 8 29 22 28 34 -4z"/>
<path d="M550 223 c0 -5 7 -30 16 -58 9 -27 18 -56 21 -64 2 -7 14 6 26 30 12
24 31 56 41 72 16 24 16 27 2 27 -8 0 -22 -13 -31 -30 -9 -16 -19 -30 -24 -30
-5 0 -11 14 -14 30 -4 18 -13 30 -22 30 -8 0 -15 -3 -15 -7z"/>
<path d="M772 218 c-23 -30 -61 -117 -53 -123 5 -3 12 -1 16 5 10 17 75 12 75
-5 0 -8 7 -15 16 -15 13 0 15 6 10 33 -4 17 -9 51 -13 75 -6 43 -29 57 -51 30z
m28 -58 c0 -23 -4 -30 -20 -30 -22 0 -25 12 -10 41 16 28 30 23 30 -11z"/>
<path d="M920 220 c0 -5 14 -10 30 -10 17 0 30 -3 30 -6 0 -3 -18 -27 -40 -53
-22 -26 -40 -53 -40 -59 0 -8 18 -12 50 -12 28 0 50 5 50 10 0 6 -13 10 -30
10 -16 0 -30 5 -30 10 0 6 18 30 40 54 22 24 40 48 40 55 0 7 -19 11 -50 11
-27 0 -50 -4 -50 -10z"/>
<path d="M1087 223 c-3 -5 -8 -30 -11 -58 -4 -27 -9 -58 -12 -67 -3 -12 0 -18
9 -18 10 0 18 19 26 63 6 35 11 69 11 75 0 13 -16 16 -23 5z"/>
<path d="M1177 208 c-3 -13 -9 -47 -13 -75 l-7 -53 36 0 c20 0 39 5 42 10 4 6
-5 10 -19 10 -29 0 -31 13 -17 88 6 31 5 42 -4 42 -7 0 -15 -10 -18 -22z"/>
<path d="M1317 223 c-3 -5 -8 -30 -12 -58 -4 -27 -9 -58 -12 -67 -3 -11 1 -18
10 -18 10 0 18 19 26 63 6 35 11 69 11 75 0 13 -16 16 -23 5z"/>
<path d="M1405 208 c-19 -88 -22 -128 -9 -128 7 0 16 16 19 38 11 65 18 69 28
15 6 -30 15 -53 22 -53 7 0 23 20 36 45 24 45 45 61 36 28 -16 -59 -17 -73 -4
-73 9 0 18 21 26 57 15 78 14 93 -7 93 -12 0 -28 -20 -47 -57 l-28 -58 -13 40
c-7 22 -13 48 -13 58 -1 26 -40 22 -46 -5z"/>
</g>
</svg>
